<?xml version="1.0" encoding="utf-8"?>
<!-- Generator: Adobe Illustrator 23.0.6, SVG Export Plug-In . SVG Version: 6.00 Build 0)  -->
<svg version="1.1" id="Layer_1" xmlns="http://www.w3.org/2000/svg" xmlns:xlink="http://www.w3.org/1999/xlink" x="0px" y="0px"
	 viewBox="0 0 226.77 226.77" style="enable-background:new 0 0 226.77 226.77;" xml:space="preserve">
<style type="text/css">
	.st0{fill:none;stroke:#6F777B;stroke-width:6;stroke-miterlimit:10;stroke-dasharray:20.4793,10.2397;}
	.st1{fill:none;stroke:#6F777B;stroke-width:6;stroke-miterlimit:10;}
	.st2{fill:#6F777B;stroke:#6F777B;stroke-miterlimit:10;}
</style>
<g>
	<g>
		<circle class="st0" cx="113.89" cy="114.54" r="88"/>
	</g>
	<g>
		<line class="st1" x1="88.07" y1="67.1" x2="140.33" y2="67.1"/>
		<path class="st1" d="M148.89,67.1c6.69,0,12.11,5.42,12.11,12.11v85.23c0,6.69-5.42,12.11-12.11,12.11H78.9
			c-6.69,0-12.11-5.42-12.11-12.11V79.2c0-6.69,5.42-12.11,12.11-12.11"/>
		<polyline class="st1" points="83.7,126.74 108.78,145.51 142.79,91.44 		"/>
		<path class="st2" d="M113.71,48.54c-11.41,0-20.66,7.3-20.86,16.35h41.72C134.37,55.83,125.12,48.54,113.71,48.54z M113.57,63.38
			c-3,0-5.43-2.43-5.43-5.43c0-3,2.43-5.43,5.43-5.43c3,0,5.43,2.43,5.43,5.43C119,60.95,116.57,63.38,113.57,63.38z"/>
	</g>
</g>
</svg>
