<?xml version="1.0" encoding="utf-8"?>
<!-- Generator: Adobe Illustrator 23.0.6, SVG Export Plug-In . SVG Version: 6.00 Build 0)  -->
<svg version="1.1" id="Layer_1" xmlns="http://www.w3.org/2000/svg" xmlns:xlink="http://www.w3.org/1999/xlink" x="0px" y="0px"
	 viewBox="0 0 226.77 226.77" style="enable-background:new 0 0 226.77 226.77;" xml:space="preserve">
<style type="text/css">
	.st0{fill:none;stroke:#6F777B;stroke-width:6;stroke-miterlimit:10;stroke-dasharray:20.4793,10.2397;}
	.st1{fill:none;stroke:#6F777B;stroke-width:6;stroke-miterlimit:10;}
	.st2{fill:none;stroke:#6F777B;stroke-width:6;stroke-linecap:round;stroke-miterlimit:10;}
</style>
<g>
	<g>
		<g>
			<circle class="st0" cx="114.13" cy="114.25" r="88"/>
		</g>
		<g>
			<polyline class="st1" points="96.24,140.01 81.52,140.01 81.52,78.77 95.3,63.58 137.09,63.58 150.62,78.77 150.62,140.01 
				113.16,140.01 			"/>
			<path class="st1" d="M159.56,140.01h-8.85V86.39h12.51c13.3,0,24.09,10.78,24.09,24.09v29.53h-9.45"/>
			<line class="st1" x1="83.73" y1="79.41" x2="149.6" y2="79.41"/>
			<line class="st1" x1="115.9" y1="65.54" x2="115.9" y2="79.92"/>
			<line class="st2" x1="101.35" y1="110.12" x2="122.16" y2="110.12"/>
			<path class="st2" d="M118.52,99.41l9.81,9.81c0.38,0.38,0.38,0.99,0,1.37l-10.23,10.23"/>
			<line class="st2" x1="36.96" y1="109.82" x2="70.16" y2="109.73"/>
			<line class="st2" x1="44.37" y1="93.88" x2="70.16" y2="93.88"/>
			<line class="st2" x1="44.37" y1="125.2" x2="70.16" y2="125.2"/>
			<circle class="st2" cx="103.13" cy="140.62" r="8.3"/>
		</g>
	</g>
	<circle class="st2" cx="167.73" cy="140.62" r="8.3"/>
</g>
</svg>
