<?xml version="1.0" encoding="utf-8"?>
<!-- Generator: Adobe Illustrator 23.0.6, SVG Export Plug-In . SVG Version: 6.00 Build 0)  -->
<svg version="1.1" id="Layer_1" xmlns="http://www.w3.org/2000/svg" xmlns:xlink="http://www.w3.org/1999/xlink" x="0px" y="0px"
	 viewBox="0 0 226.77 226.77" style="enable-background:new 0 0 226.77 226.77;" xml:space="preserve">
<style type="text/css">
	.st0{fill:none;stroke:#6F777B;stroke-width:6;stroke-miterlimit:10;}
	.st1{fill:#6F777B;stroke:#6F777B;stroke-miterlimit:10;}
	.st2{fill:none;stroke:#6F777B;stroke-width:6;stroke-linecap:round;stroke-miterlimit:10;}
	.st3{fill:none;stroke:#6F777B;stroke-width:6;stroke-miterlimit:10;stroke-dasharray:20.4793,10.2397;}
</style>
<g>
	<g>
		<path class="st0" d="M86.65,62.3"/>
		<ellipse class="st0" cx="142.09" cy="163.08" rx="20.08" ry="23.14"/>
		<ellipse class="st0" cx="141.41" cy="162.42" rx="10.85" ry="12.5"/>
		<ellipse class="st0" cx="87.96" cy="161.81" rx="10.85" ry="12.5"/>
		<path class="st0" d="M86.65,62.3l46.99,79.75c-3.59,1.65-6.86,5.66-9.4,10.05L80.07,74.86C80.07,68.4,81.8,63.73,86.65,62.3z"/>
		<ellipse class="st0" cx="87.78" cy="161.29" rx="20.08" ry="23.14"/>
		<g>
			<path class="st0" d="M122.28,122.53l27.52-49.46c-0.01-6.46-1.73-11.13-6.58-12.56l-29.15,48.3L122.28,122.53z"/>
			<path class="st0" d="M106.86,121.93l-10.6,18.15c3.59,1.65,6.83,5.83,9.37,10.22l9.01-14.81L106.86,121.93z"/>
		</g>
		<circle class="st1" cx="114.29" cy="121.76" r="1.52"/>
		<line class="st2" x1="114.73" y1="83.82" x2="114.73" y2="91.7"/>
		<line class="st2" x1="114.73" y1="68.31" x2="114.73" y2="76.18"/>
		<line class="st2" x1="114.73" y1="52.05" x2="114.73" y2="59.92"/>
		<line class="st2" x1="114.73" y1="36.28" x2="114.73" y2="44.16"/>
	</g>
	<g>
		<circle class="st3" cx="114.93" cy="113.25" r="88"/>
	</g>
</g>
</svg>
