<?xml version="1.0" encoding="utf-8"?>
<!-- Generator: Adobe Illustrator 23.0.6, SVG Export Plug-In . SVG Version: 6.00 Build 0)  -->
<svg version="1.1" id="Layer_1" xmlns="http://www.w3.org/2000/svg" xmlns:xlink="http://www.w3.org/1999/xlink" x="0px" y="0px"
	 viewBox="0 0 226.77 226.77" style="enable-background:new 0 0 226.77 226.77;" xml:space="preserve">
<style type="text/css">
	.st0{fill:none;stroke:#6F777B;stroke-width:6;stroke-linecap:round;stroke-miterlimit:10;}
	.st1{fill:none;stroke:#6F777B;stroke-width:5;stroke-linecap:round;stroke-miterlimit:10;}
	.st2{fill:none;stroke:#6F777B;stroke-width:6;stroke-miterlimit:10;}
	.st3{fill:#6F777B;stroke:#6F777B;stroke-miterlimit:10;}
	.st4{fill:none;stroke:#6F777B;stroke-width:6;stroke-miterlimit:10;stroke-dasharray:20.4793,10.2397;}
</style>
<g>
	<path class="st0" d="M85.32,155.44l-23.27,9.29c-1.61,0.64-3.39-1.05-2.86-2.7l8.02-24.69l81.97-81.97l18.11,18.11L85.32,155.44z"
		/>
	<line class="st1" x1="158.47" y1="65.21" x2="85.06" y2="138.62"/>
	<line class="st0" x1="67.19" y1="87.04" x2="79.45" y2="74.79"/>
	<line class="st0" x1="84.3" y1="103.25" x2="96.55" y2="91"/>
	<line class="st0" x1="118" y1="138" x2="130.26" y2="125.74"/>
	<line class="st0" x1="135.62" y1="154.59" x2="147.87" y2="142.34"/>
	<line class="st1" x1="74.85" y1="94.42" x2="82.19" y2="87.08"/>
	<line class="st1" x1="125.92" y1="146.38" x2="133.26" y2="139.04"/>
	<g>
		<polyline class="st2" points="85.03,106.65 58.24,79.86 83.2,54.89 110.45,82.44 		"/>
		<polyline class="st2" points="115.05,136.74 142.64,164.25 167.6,139.29 139.81,111.5 		"/>
	</g>
	<polygon class="st3" points="64.85,144 77.83,156.98 60.26,163.66 	"/>
	<g>
		<circle class="st4" cx="112.92" cy="109.88" r="88"/>
	</g>
</g>
</svg>
