<?xml version="1.0" encoding="utf-8"?>
<!-- Generator: Adobe Illustrator 23.0.6, SVG Export Plug-In . SVG Version: 6.00 Build 0)  -->
<svg version="1.1" id="Layer_1" xmlns="http://www.w3.org/2000/svg" xmlns:xlink="http://www.w3.org/1999/xlink" x="0px" y="0px"
	 viewBox="0 0 226.77 226.77" style="enable-background:new 0 0 226.77 226.77;" xml:space="preserve">
<style type="text/css">
	.st0{fill:none;stroke:#6F777B;stroke-width:6;stroke-miterlimit:10;stroke-dasharray:20.4793,10.2397;}
	.st1{fill:none;stroke:#6F777B;stroke-width:6;stroke-linecap:round;stroke-miterlimit:10;}
</style>
<g>
	<g>
		<circle class="st0" cx="115.44" cy="111.44" r="88"/>
	</g>
	<g>
		<polyline class="st1" points="92.69,173.96 76.3,173.96 66.13,119.71 57.09,125.64 45.22,89.19 115.29,66.87 185.65,88.63 
			175.19,126.49 163.89,120.56 155.42,174.52 106.25,173.96 		"/>
		<path class="st1" d="M88.46,78.69c10.85,17.04,40.64,19.81,53.66-0.24c0.17-0.26-0.06-0.6-0.37-0.55
			c-17.56,3.36-35.15,3.36-52.77,0.05C88.55,77.88,88.23,78.34,88.46,78.69z"/>
		<path class="st1" d="M72.91,82.84c14.48,17.8,32.39,25.88,54.25,22.74"/>
		<path class="st1" d="M159.23,81.71c-5.15,7.16-12.31,13.73-21.19,19.78"/>
		<path class="st1" d="M115.8,58.39c-0.12,0.01-0.25,0.01-0.37,0.01c-4.22,0-7.7-3.62-7.7-8.02s3.47-8.02,7.7-8.02
			s7.7,3.62,7.7,8.02"/>
		<line class="st1" x1="115.43" y1="58.4" x2="115.43" y2="64.47"/>
	</g>
</g>
</svg>
