<?xml version="1.0" encoding="utf-8"?>
<!-- Generator: Adobe Illustrator 23.0.6, SVG Export Plug-In . SVG Version: 6.00 Build 0)  -->
<svg version="1.1" id="Layer_1" xmlns="http://www.w3.org/2000/svg" xmlns:xlink="http://www.w3.org/1999/xlink" x="0px" y="0px"
	 viewBox="0 0 226.77 226.77" style="enable-background:new 0 0 226.77 226.77;" xml:space="preserve">
<style type="text/css">
	.st0{fill:#FFFFFF;}
	.st1{fill:#6F777B;}
	.st2{fill:#84BACC;}
</style>
<rect x="28.97" y="29.99" class="st0" width="168.41" height="168.43"/>
<path class="st1" d="M28.97,124.35v52.33l18.33-35.39C39.99,135.99,33.96,130.24,28.97,124.35"/>
<path class="st1" d="M113.01,43.02c0.18,0,0.49-0.02,0.79-0.04c6.67-0.57,11.91-6.26,11.92-12.97H99.67c0,1.42,0.22,2.83,0.65,4.25
	C101.92,39.42,107.14,43.02,113.01,43.02"/>
<path class="st1" d="M125.66,163.53v8.76H99.71v-8.76c-10.81-2.33-20.88-5.54-29.99-9.53l-23.18,44.42h134.07l-23.49-45.07
	C147.61,157.66,137.05,161.08,125.66,163.53"/>
<path class="st1" d="M179.35,140.34l18.03,34.79v-51.95C192.5,129.13,186.57,134.94,179.35,140.34"/>
<path class="st2" d="M81.46,131.46c7.99,3.22,14.99,4.78,19.04,5.5v-0.63c0-3.72,3.03-6.74,6.74-6.74h10.89
	c3.72,0,6.74,3.03,6.74,6.74v0.63c4.33-0.75,11.92-2.45,20.5-6.11L113.58,69.9L81.46,131.46z"/>
<path class="st1" d="M167.47,117.37c0,0,29.91-23.88,29.91-87.38h-46.34c0,0,0.42,14.27-13.3,29.26L167.47,117.37z"/>
<path class="st1" d="M59.69,117.37c0,0-30.72-23.57-30.72-87.38l47.15,0.02c0,0-0.42,14.24,13.3,29.24L59.69,117.37z"/>
</svg>
