<?xml version="1.0" encoding="utf-8"?>
<!-- Generator: Adobe Illustrator 23.0.6, SVG Export Plug-In . SVG Version: 6.00 Build 0)  -->
<svg version="1.1" id="Layer_1" xmlns="http://www.w3.org/2000/svg" xmlns:xlink="http://www.w3.org/1999/xlink" x="0px" y="0px"
	 viewBox="0 0 226.77 82.77" style="enable-background:new 0 0 226.77 82.77;" xml:space="preserve">
<style type="text/css">
	.st0{fill:#84BACC;}
	.st1{fill:#6F777B;}
	.st2{fill:#FFFFFF;}
</style>
<path class="st0" d="M79.16,62.21c0-1.4,1.04-2.43,2.4-2.43c1.04,0,1.85,0.59,2.18,1.47h-0.28c-0.33-0.75-1.04-1.2-1.9-1.2
	c-1.21,0-2.12,0.93-2.12,2.16c0,1.22,0.92,2.16,2.12,2.16c0.85,0,1.56-0.45,1.91-1.22h0.29c-0.35,0.91-1.18,1.49-2.19,1.49
	C80.2,64.64,79.16,63.59,79.16,62.21"/>
<rect x="88.4" y="58.21" class="st0" width="0.28" height="6.33"/>
<path class="st0" d="M93.44,62.21c0-1.4,1.05-2.43,2.43-2.43c1.4,0,2.44,1.04,2.44,2.43c0,1.39-1.04,2.43-2.44,2.43
	C94.48,64.64,93.44,63.6,93.44,62.21 M98.03,62.21c0-1.24-0.92-2.16-2.15-2.16c-1.24,0-2.15,0.92-2.15,2.16
	c0,1.24,0.92,2.16,2.15,2.16C97.11,64.37,98.03,63.44,98.03,62.21"/>
<path class="st0" d="M105.3,64.28v0.26h-0.61c-0.87,0-1.4-0.54-1.4-1.42v-3h-1.08v-0.24h1.08v-1.38h0.28v1.38h1.7v0.24h-1.7v2.99
	c0,0.74,0.42,1.17,1.15,1.17H105.3z"/>
<path class="st0" d="M113.68,61.78v2.77h-0.28v-2.72c0-1.12-0.61-1.79-1.61-1.79c-0.96,0-1.77,0.82-1.77,1.79v2.73h-0.28v-6.33h0.28
	v2.71c0.32-0.68,1.03-1.15,1.82-1.15C112.97,59.78,113.68,60.55,113.68,61.78"/>
<path class="st0" d="M118.7,58.34h0.41v0.48h-0.41V58.34z M118.76,59.87h0.28v4.68h-0.28V59.87z"/>
<path class="st0" d="M128.15,61.78v2.77h-0.28v-2.72c0-1.12-0.61-1.79-1.61-1.79c-0.96,0-1.77,0.82-1.77,1.79v2.73h-0.28v-4.68h0.22
	l0.05,1.08c0.32-0.69,1.03-1.17,1.83-1.17C127.44,59.78,128.15,60.57,128.15,61.78"/>
<path class="st0" d="M137.39,59.87v3.99c0,1.51-0.84,2.43-2.21,2.43c-1.04,0-1.78-0.53-2.07-1.43h0.28c0.28,0.75,0.94,1.17,1.8,1.17
	c1.2,0,1.94-0.8,1.94-2.15v-0.71c-0.37,0.73-1.11,1.21-2.01,1.21c-1.29,0-2.28-0.99-2.28-2.3c0-1.3,0.99-2.3,2.28-2.3
	c0.92,0,1.68,0.5,2.04,1.27l0.04-1.18H137.39z M137.11,62.08c0-1.17-0.85-2.03-1.99-2.03c-1.15,0-2.02,0.88-2.02,2.03
	c0,1.16,0.87,2.03,2.02,2.03C136.27,64.11,137.11,63.25,137.11,62.08"/>
<polygon class="st0" points="154.56,59.87 152.91,64.55 152.69,64.55 151.1,60.56 149.51,64.55 149.3,64.55 147.69,59.87 
	147.98,59.87 149.42,64.06 151.03,60.02 151.16,60.02 152.79,64.07 154.28,59.87 "/>
<path class="st0" d="M158.67,62.21c0-1.4,1.05-2.43,2.43-2.43c1.4,0,2.44,1.04,2.44,2.43c0,1.39-1.04,2.43-2.44,2.43
	C159.72,64.64,158.67,63.6,158.67,62.21 M163.26,62.21c0-1.24-0.92-2.16-2.15-2.16c-1.24,0-2.15,0.92-2.15,2.16
	c0,1.24,0.92,2.16,2.15,2.16C162.34,64.37,163.26,63.44,163.26,62.21"/>
<path class="st0" d="M170.63,59.85v0.27h-0.42c-0.98,0-1.63,0.76-1.63,1.79v2.63h-0.28v-4.68h0.22l0.05,1.06
	c0.29-0.66,0.87-1.07,1.66-1.07H170.63z"/>
<polygon class="st0" points="176.23,62.23 175.35,62.23 175.35,64.55 175.08,64.55 175.08,58.21 175.35,58.21 175.35,61.97 
	176.23,61.97 178.06,59.87 178.41,59.87 176.47,62.1 178.58,64.55 178.23,64.55 "/>
<path class="st0" d="M182.48,63.27h0.27c0.07,0.7,0.63,1.1,1.52,1.1c0.89,0,1.48-0.42,1.48-1.07c0-0.81-0.76-0.95-1.53-1.08
	c-0.81-0.14-1.65-0.28-1.65-1.2c0-0.74,0.67-1.25,1.66-1.25c0.99,0,1.63,0.5,1.67,1.31h-0.27c-0.05-0.66-0.56-1.05-1.41-1.05
	c-0.83,0-1.38,0.39-1.38,0.98c0,0.7,0.68,0.81,1.44,0.94c0.82,0.14,1.75,0.3,1.75,1.34c0,0.81-0.71,1.34-1.77,1.34
	C183.21,64.64,182.56,64.12,182.48,63.27"/>
<path class="st0" d="M194.71,61.78v2.77h-0.28v-2.72c0-1.12-0.61-1.79-1.61-1.79c-0.96,0-1.77,0.82-1.77,1.79v2.73h-0.28v-6.33h0.28
	v2.71c0.32-0.68,1.03-1.15,1.82-1.15C194,59.78,194.71,60.55,194.71,61.78"/>
<path class="st0" d="M199.38,62.21c0-1.4,1.05-2.43,2.44-2.43c1.39,0,2.43,1.04,2.43,2.43c0,1.39-1.04,2.43-2.43,2.43
	C200.42,64.64,199.38,63.6,199.38,62.21 M203.96,62.21c0-1.24-0.92-2.16-2.15-2.16c-1.24,0-2.15,0.92-2.15,2.16
	c0,1.24,0.92,2.16,2.15,2.16C203.05,64.37,203.96,63.44,203.96,62.21"/>
<path class="st0" d="M211.41,59.77c1.39,0,2.38,1.05,2.38,2.43c0,1.38-0.99,2.43-2.38,2.43c-0.95,0-1.74-0.52-2.13-1.3v2.86H209
	v-6.33h0.21l0.06,1.22C209.66,60.3,210.45,59.77,211.41,59.77 M213.5,62.21c0-1.25-0.89-2.16-2.11-2.16c-1.21,0-2.12,0.93-2.12,2.16
	c0,1.23,0.91,2.16,2.12,2.16C212.61,64.37,213.5,63.45,213.5,62.21"/>
<path class="st1" d="M106.58,49.32h-5.88l-2.25-5.4H87.31l-2.26,5.4h-5.89l13.75-32.83L106.58,49.32z M96.18,38.48l-3.29-7.9
	l-3.31,7.9H96.18z"/>
<polygon class="st1" points="128.86,16.74 128.86,22.17 121.62,22.17 121.62,49.32 116.19,49.32 116.19,22.17 108.94,22.17 
	108.94,16.74 "/>
<polygon class="st1" points="154.95,43.88 154.95,49.31 135.94,49.31 135.94,16.74 141.37,16.74 141.37,43.88 "/>
<path class="st1" d="M189.45,49.32h-5.88l-2.25-5.4h-11.14l-2.26,5.4h-5.89l13.75-32.83L189.45,49.32z M179.06,38.48l-3.29-7.9
	l-3.31,7.9H179.06z"/>
<path class="st1" d="M213.79,39.96v0.16c-0.01,5.01-4.07,9.08-9.08,9.08h-1.44c-4.42,0.01-8.19-3.17-8.95-7.52l5.35-0.93
	c0.3,1.75,1.82,3.02,3.6,3.02h1.44c2.01,0,3.65-1.63,3.65-3.65v-0.16c0-1.52-0.95-2.88-2.37-3.42l-5.91-2.22
	c-4.11-1.54-6.53-5.8-5.75-10.12c0.78-4.32,4.54-7.46,8.93-7.46h1.44c3.47-0.01,6.63,1.96,8.15,5.07l-4.87,2.4
	c-0.61-1.25-1.88-2.05-3.28-2.04h-1.44c-1.76,0-3.28,1.26-3.59,3c-0.32,1.74,0.66,3.45,2.31,4.07l5.91,2.22
	C211.43,32.79,213.77,36.18,213.79,39.96"/>
<rect x="13.02" y="16.59" class="st2" width="49.59" height="49.6"/>
<path class="st1" d="M13.02,44.37v15.41l5.4-10.42C16.26,47.8,14.48,46.11,13.02,44.37"/>
<path class="st1" d="M37.76,20.42c0.05,0,0.15-0.01,0.23-0.01c1.97-0.17,3.51-1.84,3.51-3.82h-7.67c0,0.42,0.06,0.83,0.19,1.25
	C34.5,19.36,36.03,20.42,37.76,20.42"/>
<path class="st1" d="M41.49,55.91v2.58h-7.64v-2.58c-3.18-0.69-6.15-1.63-8.83-2.81l-6.83,13.08h39.48l-6.92-13.27
	C47.95,54.18,44.84,55.19,41.49,55.91"/>
<path class="st1" d="M57.3,49.08l5.31,10.25v-15.3C61.17,45.78,59.43,47.49,57.3,49.08"/>
<path class="st0" d="M28.47,46.47c2.35,0.95,4.41,1.41,5.61,1.62V47.9c0-1.09,0.89-1.99,1.99-1.99h3.21c1.09,0,1.99,0.89,1.99,1.99
	v0.19c1.27-0.22,3.51-0.72,6.04-1.8l-9.36-17.95L28.47,46.47z"/>
<path class="st1" d="M53.8,42.32c0,0,8.81-7.03,8.81-25.73H48.96c0,0,0.12,4.2-3.92,8.62L53.8,42.32z"/>
<path class="st1" d="M22.06,42.32c0,0-9.05-6.94-9.05-25.73l13.88,0.01c0,0-0.12,4.19,3.92,8.61L22.06,42.32z"/>
</svg>
